<mxfile host="Electron" modified="2024-02-17T02:53:11.729Z" agent="Mozilla/5.0 (Windows NT 10.0; Win64; x64) AppleWebKit/537.36 (KHTML, like Gecko) draw.io/23.0.2 Chrome/120.0.6099.109 Electron/28.1.0 Safari/537.36" etag="neP-C7ZE0yczNVBBMkpr" version="23.0.2" type="device">
  <diagram name="Page-1" id="2YBvvXClWsGukQMizWep">
    <mxGraphModel dx="934" dy="927" grid="1" gridSize="10" guides="1" tooltips="1" connect="1" arrows="1" fold="1" page="1" pageScale="1" pageWidth="827" pageHeight="1169" math="0" shadow="0">
      <root>
        <mxCell id="0" />
        <mxCell id="1" parent="0" />
        <mxCell id="aBGhhb3TuUfZlsWYOFRa-6" value="" style="rounded=1;whiteSpace=wrap;html=1;fillColor=#d5e8d4;strokeColor=#82b366;" vertex="1" parent="1">
          <mxGeometry x="260" y="40" width="1180" height="920" as="geometry" />
        </mxCell>
        <mxCell id="yIfG1pWElFwwl09qFA9t-1" value="Administrateur" style="shape=umlActor;verticalLabelPosition=bottom;verticalAlign=top;html=1;outlineConnect=0;" parent="1" vertex="1">
          <mxGeometry x="40" y="240" width="40" height="80" as="geometry" />
        </mxCell>
        <mxCell id="yIfG1pWElFwwl09qFA9t-3" value="Employer" style="shape=umlActor;verticalLabelPosition=bottom;verticalAlign=top;html=1;outlineConnect=0;" parent="1" vertex="1">
          <mxGeometry x="40" y="720" width="40" height="80" as="geometry" />
        </mxCell>
        <mxCell id="yIfG1pWElFwwl09qFA9t-18" style="edgeStyle=orthogonalEdgeStyle;rounded=0;orthogonalLoop=1;jettySize=auto;html=1;entryX=0;entryY=0.5;entryDx=0;entryDy=0;endArrow=none;endFill=0;" parent="1" target="yIfG1pWElFwwl09qFA9t-16" edge="1">
          <mxGeometry relative="1" as="geometry">
            <mxPoint x="80" y="760" as="sourcePoint" />
          </mxGeometry>
        </mxCell>
        <mxCell id="yIfG1pWElFwwl09qFA9t-19" style="edgeStyle=orthogonalEdgeStyle;rounded=0;orthogonalLoop=1;jettySize=auto;html=1;entryX=0;entryY=0.5;entryDx=0;entryDy=0;endArrow=none;endFill=0;" parent="1" source="yIfG1pWElFwwl09qFA9t-3" target="yIfG1pWElFwwl09qFA9t-17" edge="1">
          <mxGeometry relative="1" as="geometry">
            <mxPoint x="280" y="760.0000000000002" as="sourcePoint" />
          </mxGeometry>
        </mxCell>
        <mxCell id="yIfG1pWElFwwl09qFA9t-11" style="edgeStyle=orthogonalEdgeStyle;rounded=0;orthogonalLoop=1;jettySize=auto;html=1;entryX=0;entryY=0.5;entryDx=0;entryDy=0;endArrow=none;endFill=0;" parent="1" target="yIfG1pWElFwwl09qFA9t-10" edge="1">
          <mxGeometry relative="1" as="geometry">
            <mxPoint x="80" y="280" as="sourcePoint" />
          </mxGeometry>
        </mxCell>
        <mxCell id="yIfG1pWElFwwl09qFA9t-13" style="edgeStyle=orthogonalEdgeStyle;rounded=0;orthogonalLoop=1;jettySize=auto;html=1;entryX=0;entryY=0.5;entryDx=0;entryDy=0;endArrow=none;endFill=0;" parent="1" target="yIfG1pWElFwwl09qFA9t-12" edge="1">
          <mxGeometry relative="1" as="geometry">
            <mxPoint x="80" y="281" as="sourcePoint" />
          </mxGeometry>
        </mxCell>
        <mxCell id="yIfG1pWElFwwl09qFA9t-15" style="edgeStyle=orthogonalEdgeStyle;rounded=0;orthogonalLoop=1;jettySize=auto;html=1;entryX=0;entryY=0.5;entryDx=0;entryDy=0;endArrow=none;endFill=0;" parent="1" source="yIfG1pWElFwwl09qFA9t-1" target="yIfG1pWElFwwl09qFA9t-14" edge="1">
          <mxGeometry relative="1" as="geometry">
            <mxPoint x="280" y="280.0000000000002" as="sourcePoint" />
          </mxGeometry>
        </mxCell>
        <mxCell id="yIfG1pWElFwwl09qFA9t-48" style="edgeStyle=orthogonalEdgeStyle;rounded=0;orthogonalLoop=1;jettySize=auto;html=1;entryX=0.5;entryY=0;entryDx=0;entryDy=0;dashed=1;endArrow=open;endFill=0;" parent="1" source="yIfG1pWElFwwl09qFA9t-10" target="yIfG1pWElFwwl09qFA9t-31" edge="1">
          <mxGeometry relative="1" as="geometry" />
        </mxCell>
        <mxCell id="yIfG1pWElFwwl09qFA9t-10" value="Configure les horaires d&#39;ouverture" style="ellipse;whiteSpace=wrap;html=1;" parent="1" vertex="1">
          <mxGeometry x="350" y="240" width="120" height="80" as="geometry" />
        </mxCell>
        <mxCell id="yIfG1pWElFwwl09qFA9t-47" style="edgeStyle=orthogonalEdgeStyle;rounded=0;orthogonalLoop=1;jettySize=auto;html=1;entryX=0.666;entryY=0.045;entryDx=0;entryDy=0;dashed=1;endArrow=open;endFill=0;entryPerimeter=0;" parent="1" source="yIfG1pWElFwwl09qFA9t-12" target="yIfG1pWElFwwl09qFA9t-31" edge="1">
          <mxGeometry relative="1" as="geometry">
            <Array as="points">
              <mxPoint x="740" y="160" />
            </Array>
          </mxGeometry>
        </mxCell>
        <mxCell id="yIfG1pWElFwwl09qFA9t-12" value="Creer compte utilisateur" style="ellipse;whiteSpace=wrap;html=1;" parent="1" vertex="1">
          <mxGeometry x="350" y="120" width="120" height="80" as="geometry" />
        </mxCell>
        <mxCell id="yIfG1pWElFwwl09qFA9t-49" style="edgeStyle=orthogonalEdgeStyle;rounded=0;orthogonalLoop=1;jettySize=auto;html=1;dashed=1;endArrow=open;endFill=0;entryX=0.333;entryY=0.05;entryDx=0;entryDy=0;entryPerimeter=0;" parent="1" source="yIfG1pWElFwwl09qFA9t-14" target="yIfG1pWElFwwl09qFA9t-31" edge="1">
          <mxGeometry relative="1" as="geometry">
            <mxPoint x="720" y="420" as="targetPoint" />
            <Array as="points">
              <mxPoint x="700" y="400" />
            </Array>
          </mxGeometry>
        </mxCell>
        <mxCell id="yIfG1pWElFwwl09qFA9t-14" value="Configure les services" style="ellipse;whiteSpace=wrap;html=1;" parent="1" vertex="1">
          <mxGeometry x="350" y="360" width="120" height="80" as="geometry" />
        </mxCell>
        <mxCell id="yIfG1pWElFwwl09qFA9t-51" style="edgeStyle=orthogonalEdgeStyle;rounded=0;orthogonalLoop=1;jettySize=auto;html=1;entryX=0.5;entryY=1;entryDx=0;entryDy=0;dashed=1;endArrow=open;endFill=0;" parent="1" source="yIfG1pWElFwwl09qFA9t-16" target="yIfG1pWElFwwl09qFA9t-31" edge="1">
          <mxGeometry relative="1" as="geometry">
            <mxPoint x="720" y="620" as="targetPoint" />
          </mxGeometry>
        </mxCell>
        <mxCell id="yIfG1pWElFwwl09qFA9t-16" value="Moderation des avis" style="ellipse;whiteSpace=wrap;html=1;" parent="1" vertex="1">
          <mxGeometry x="360" y="717.5" width="120" height="85" as="geometry" />
        </mxCell>
        <mxCell id="yIfG1pWElFwwl09qFA9t-50" style="edgeStyle=orthogonalEdgeStyle;rounded=0;orthogonalLoop=1;jettySize=auto;html=1;entryX=0.34;entryY=0.947;entryDx=0;entryDy=0;dashed=1;endArrow=open;endFill=0;entryPerimeter=0;" parent="1" source="yIfG1pWElFwwl09qFA9t-17" target="yIfG1pWElFwwl09qFA9t-31" edge="1">
          <mxGeometry relative="1" as="geometry">
            <mxPoint x="720" y="620" as="targetPoint" />
            <Array as="points">
              <mxPoint x="700" y="560" />
              <mxPoint x="700" y="500" />
              <mxPoint x="701" y="500" />
            </Array>
          </mxGeometry>
        </mxCell>
        <mxCell id="yIfG1pWElFwwl09qFA9t-17" value="Mis en ligne des annonces" style="ellipse;whiteSpace=wrap;html=1;" parent="1" vertex="1">
          <mxGeometry x="360" y="520" width="120" height="80" as="geometry" />
        </mxCell>
        <mxCell id="yIfG1pWElFwwl09qFA9t-31" value="Se connecter" style="ellipse;whiteSpace=wrap;html=1;" parent="1" vertex="1">
          <mxGeometry x="660" y="420" width="120" height="80" as="geometry" />
        </mxCell>
        <mxCell id="yIfG1pWElFwwl09qFA9t-52" value="Include" style="text;html=1;strokeColor=none;fillColor=none;align=center;verticalAlign=middle;whiteSpace=wrap;rounded=0;" parent="1" vertex="1">
          <mxGeometry x="550" y="140" width="60" height="30" as="geometry" />
        </mxCell>
        <mxCell id="yIfG1pWElFwwl09qFA9t-54" value="Include" style="text;html=1;strokeColor=none;fillColor=none;align=center;verticalAlign=middle;whiteSpace=wrap;rounded=0;" parent="1" vertex="1">
          <mxGeometry x="550" y="260" width="60" height="30" as="geometry" />
        </mxCell>
        <mxCell id="yIfG1pWElFwwl09qFA9t-55" value="Include" style="text;html=1;strokeColor=none;fillColor=none;align=center;verticalAlign=middle;whiteSpace=wrap;rounded=0;" parent="1" vertex="1">
          <mxGeometry x="550" y="380" width="60" height="30" as="geometry" />
        </mxCell>
        <mxCell id="yIfG1pWElFwwl09qFA9t-56" value="Include" style="text;html=1;strokeColor=none;fillColor=none;align=center;verticalAlign=middle;whiteSpace=wrap;rounded=0;" parent="1" vertex="1">
          <mxGeometry x="550" y="535" width="60" height="30" as="geometry" />
        </mxCell>
        <mxCell id="yIfG1pWElFwwl09qFA9t-58" value="Include" style="text;html=1;strokeColor=none;fillColor=none;align=center;verticalAlign=middle;whiteSpace=wrap;rounded=0;" parent="1" vertex="1">
          <mxGeometry x="550" y="740" width="60" height="30" as="geometry" />
        </mxCell>
        <mxCell id="yIfG1pWElFwwl09qFA9t-113" style="edgeStyle=orthogonalEdgeStyle;rounded=0;orthogonalLoop=1;jettySize=auto;html=1;entryX=0.338;entryY=0.959;entryDx=0;entryDy=0;entryPerimeter=0;endArrow=block;endFill=0;" parent="1" source="yIfG1pWElFwwl09qFA9t-74" target="yIfG1pWElFwwl09qFA9t-16" edge="1">
          <mxGeometry relative="1" as="geometry">
            <Array as="points">
              <mxPoint x="360" y="820" />
              <mxPoint x="400" y="820" />
              <mxPoint x="400" y="810" />
              <mxPoint x="401" y="810" />
            </Array>
          </mxGeometry>
        </mxCell>
        <mxCell id="yIfG1pWElFwwl09qFA9t-74" value="Publier" style="ellipse;whiteSpace=wrap;html=1;" parent="1" vertex="1">
          <mxGeometry x="320" y="840" width="80" height="40" as="geometry" />
        </mxCell>
        <mxCell id="yIfG1pWElFwwl09qFA9t-114" style="edgeStyle=orthogonalEdgeStyle;rounded=0;orthogonalLoop=1;jettySize=auto;html=1;entryX=0.667;entryY=0.954;entryDx=0;entryDy=0;entryPerimeter=0;endArrow=block;endFill=0;" parent="1" source="yIfG1pWElFwwl09qFA9t-75" target="yIfG1pWElFwwl09qFA9t-16" edge="1">
          <mxGeometry relative="1" as="geometry">
            <mxPoint x="400" y="800" as="targetPoint" />
            <Array as="points">
              <mxPoint x="480" y="820" />
              <mxPoint x="440" y="820" />
            </Array>
          </mxGeometry>
        </mxCell>
        <mxCell id="yIfG1pWElFwwl09qFA9t-75" value="Supprime" style="ellipse;whiteSpace=wrap;html=1;" parent="1" vertex="1">
          <mxGeometry x="440" y="840" width="80" height="40" as="geometry" />
        </mxCell>
        <mxCell id="yIfG1pWElFwwl09qFA9t-110" style="edgeStyle=orthogonalEdgeStyle;rounded=0;orthogonalLoop=1;jettySize=auto;html=1;entryX=0.332;entryY=0.957;entryDx=0;entryDy=0;endArrow=block;endFill=0;entryPerimeter=0;" parent="1" source="yIfG1pWElFwwl09qFA9t-78" target="yIfG1pWElFwwl09qFA9t-17" edge="1">
          <mxGeometry relative="1" as="geometry">
            <Array as="points">
              <mxPoint x="320" y="620" />
              <mxPoint x="400" y="620" />
            </Array>
          </mxGeometry>
        </mxCell>
        <mxCell id="yIfG1pWElFwwl09qFA9t-78" value="Publier" style="ellipse;whiteSpace=wrap;html=1;" parent="1" vertex="1">
          <mxGeometry x="280" y="640" width="80" height="40" as="geometry" />
        </mxCell>
        <mxCell id="yIfG1pWElFwwl09qFA9t-112" style="edgeStyle=orthogonalEdgeStyle;rounded=0;orthogonalLoop=1;jettySize=auto;html=1;exitX=0.5;exitY=0;exitDx=0;exitDy=0;entryX=0.668;entryY=0.957;entryDx=0;entryDy=0;endArrow=block;endFill=0;entryPerimeter=0;" parent="1" source="yIfG1pWElFwwl09qFA9t-79" target="yIfG1pWElFwwl09qFA9t-17" edge="1">
          <mxGeometry relative="1" as="geometry">
            <Array as="points">
              <mxPoint x="480" y="620" />
              <mxPoint x="440" y="620" />
              <mxPoint x="440" y="600" />
            </Array>
          </mxGeometry>
        </mxCell>
        <mxCell id="yIfG1pWElFwwl09qFA9t-79" value="Supprimer" style="ellipse;whiteSpace=wrap;html=1;" parent="1" vertex="1">
          <mxGeometry x="480" y="640" width="80" height="40" as="geometry" />
        </mxCell>
        <mxCell id="yIfG1pWElFwwl09qFA9t-102" style="edgeStyle=orthogonalEdgeStyle;rounded=0;orthogonalLoop=1;jettySize=auto;html=1;entryX=1;entryY=0.5;entryDx=0;entryDy=0;endArrow=none;endFill=0;" parent="1" source="yIfG1pWElFwwl09qFA9t-87" target="yIfG1pWElFwwl09qFA9t-88" edge="1">
          <mxGeometry relative="1" as="geometry" />
        </mxCell>
        <mxCell id="yIfG1pWElFwwl09qFA9t-103" style="edgeStyle=orthogonalEdgeStyle;rounded=0;orthogonalLoop=1;jettySize=auto;html=1;entryX=1;entryY=0.5;entryDx=0;entryDy=0;endArrow=none;endFill=0;" parent="1" source="yIfG1pWElFwwl09qFA9t-87" target="yIfG1pWElFwwl09qFA9t-92" edge="1">
          <mxGeometry relative="1" as="geometry" />
        </mxCell>
        <mxCell id="yIfG1pWElFwwl09qFA9t-104" style="edgeStyle=orthogonalEdgeStyle;rounded=0;orthogonalLoop=1;jettySize=auto;html=1;entryX=1;entryY=0.5;entryDx=0;entryDy=0;endArrow=none;endFill=0;" parent="1" source="yIfG1pWElFwwl09qFA9t-87" target="yIfG1pWElFwwl09qFA9t-89" edge="1">
          <mxGeometry relative="1" as="geometry" />
        </mxCell>
        <mxCell id="yIfG1pWElFwwl09qFA9t-105" style="edgeStyle=orthogonalEdgeStyle;rounded=0;orthogonalLoop=1;jettySize=auto;html=1;entryX=1;entryY=0.5;entryDx=0;entryDy=0;endArrow=none;endFill=0;" parent="1" source="yIfG1pWElFwwl09qFA9t-87" target="yIfG1pWElFwwl09qFA9t-90" edge="1">
          <mxGeometry relative="1" as="geometry" />
        </mxCell>
        <mxCell id="yIfG1pWElFwwl09qFA9t-106" style="edgeStyle=orthogonalEdgeStyle;rounded=0;orthogonalLoop=1;jettySize=auto;html=1;entryX=1;entryY=0.5;entryDx=0;entryDy=0;endArrow=none;endFill=0;" parent="1" source="yIfG1pWElFwwl09qFA9t-87" target="yIfG1pWElFwwl09qFA9t-91" edge="1">
          <mxGeometry relative="1" as="geometry" />
        </mxCell>
        <mxCell id="yIfG1pWElFwwl09qFA9t-87" value="Visiteur" style="shape=umlActor;verticalLabelPosition=bottom;verticalAlign=top;html=1;outlineConnect=0;" parent="1" vertex="1">
          <mxGeometry x="1600" y="357.5" width="40" height="80" as="geometry" />
        </mxCell>
        <mxCell id="yIfG1pWElFwwl09qFA9t-88" value="Voir les differents Services" style="ellipse;whiteSpace=wrap;html=1;" parent="1" vertex="1">
          <mxGeometry x="1275" y="277.5" width="120" height="80" as="geometry" />
        </mxCell>
        <mxCell id="yIfG1pWElFwwl09qFA9t-107" style="edgeStyle=orthogonalEdgeStyle;rounded=0;orthogonalLoop=1;jettySize=auto;html=1;entryX=1;entryY=0.5;entryDx=0;entryDy=0;startArrow=block;startFill=0;endArrow=none;endFill=0;exitX=0.042;exitY=0.284;exitDx=0;exitDy=0;exitPerimeter=0;" parent="1" source="yIfG1pWElFwwl09qFA9t-89" edge="1">
          <mxGeometry relative="1" as="geometry">
            <mxPoint x="1270" y="400" as="sourcePoint" />
            <mxPoint x="1080" y="383.46" as="targetPoint" />
            <Array as="points">
              <mxPoint x="1180" y="420" />
              <mxPoint x="1180" y="380" />
              <mxPoint x="1080" y="380" />
            </Array>
          </mxGeometry>
        </mxCell>
        <mxCell id="yIfG1pWElFwwl09qFA9t-108" style="edgeStyle=orthogonalEdgeStyle;rounded=0;orthogonalLoop=1;jettySize=auto;html=1;entryX=1;entryY=0.5;entryDx=0;entryDy=0;strokeColor=default;startArrow=block;startFill=0;endArrow=none;endFill=0;exitX=0.094;exitY=0.767;exitDx=0;exitDy=0;exitPerimeter=0;" parent="1" source="yIfG1pWElFwwl09qFA9t-89" target="yIfG1pWElFwwl09qFA9t-98" edge="1">
          <mxGeometry relative="1" as="geometry">
            <mxPoint x="1250" y="460" as="sourcePoint" />
          </mxGeometry>
        </mxCell>
        <mxCell id="yIfG1pWElFwwl09qFA9t-89" value="Voir les Véhicules d&#39;occasion" style="ellipse;whiteSpace=wrap;html=1;" parent="1" vertex="1">
          <mxGeometry x="1275" y="397.5" width="120" height="80" as="geometry" />
        </mxCell>
        <mxCell id="yIfG1pWElFwwl09qFA9t-90" value="Voir les horaires d&#39;ouvertures" style="ellipse;whiteSpace=wrap;html=1;" parent="1" vertex="1">
          <mxGeometry x="1275" y="517.5" width="120" height="80" as="geometry" />
        </mxCell>
        <mxCell id="yIfG1pWElFwwl09qFA9t-91" value="Contacter le garage" style="ellipse;whiteSpace=wrap;html=1;" parent="1" vertex="1">
          <mxGeometry x="1275" y="637.5" width="120" height="80" as="geometry" />
        </mxCell>
        <mxCell id="yIfG1pWElFwwl09qFA9t-92" value="Créer un avis" style="ellipse;whiteSpace=wrap;html=1;" parent="1" vertex="1">
          <mxGeometry x="1275" y="157.5" width="120" height="80" as="geometry" />
        </mxCell>
        <mxCell id="yIfG1pWElFwwl09qFA9t-94" value="Filtrer les véhicules" style="ellipse;whiteSpace=wrap;html=1;" parent="1" vertex="1">
          <mxGeometry x="960" y="340" width="120" height="80" as="geometry" />
        </mxCell>
        <mxCell id="yIfG1pWElFwwl09qFA9t-98" value="Contacter le garage selon le véhicule" style="ellipse;whiteSpace=wrap;html=1;" parent="1" vertex="1">
          <mxGeometry x="960" y="455" width="120" height="80" as="geometry" />
        </mxCell>
        <mxCell id="yIfG1pWElFwwl09qFA9t-121" style="edgeStyle=orthogonalEdgeStyle;rounded=0;orthogonalLoop=1;jettySize=auto;html=1;entryX=0.5;entryY=1;entryDx=0;entryDy=0;endArrow=block;endFill=0;" parent="1" source="yIfG1pWElFwwl09qFA9t-120" target="yIfG1pWElFwwl09qFA9t-17" edge="1">
          <mxGeometry relative="1" as="geometry" />
        </mxCell>
        <mxCell id="yIfG1pWElFwwl09qFA9t-120" value="Modifier" style="ellipse;whiteSpace=wrap;html=1;" parent="1" vertex="1">
          <mxGeometry x="380" y="640" width="80" height="40" as="geometry" />
        </mxCell>
        <mxCell id="cVHtuX7MyseVZJBIROG0-2" style="edgeStyle=orthogonalEdgeStyle;rounded=0;orthogonalLoop=1;jettySize=auto;html=1;entryX=0;entryY=0.5;entryDx=0;entryDy=0;" parent="1" source="cVHtuX7MyseVZJBIROG0-1" target="yIfG1pWElFwwl09qFA9t-88" edge="1">
          <mxGeometry relative="1" as="geometry" />
        </mxCell>
        <mxCell id="cVHtuX7MyseVZJBIROG0-1" value="Contacter le garage selon le Service" style="ellipse;whiteSpace=wrap;html=1;" parent="1" vertex="1">
          <mxGeometry x="960" y="230" width="120" height="80" as="geometry" />
        </mxCell>
        <mxCell id="aBGhhb3TuUfZlsWYOFRa-7" value="Garage V. Parrot" style="text;strokeColor=none;fillColor=none;html=1;fontSize=24;fontStyle=1;verticalAlign=middle;align=center;" vertex="1" parent="1">
          <mxGeometry x="760" y="60" width="230" height="40" as="geometry" />
        </mxCell>
      </root>
    </mxGraphModel>
  </diagram>
</mxfile>
